<svg width="32" height="32" viewBox="0 0 32 32" fill="none" xmlns="http://www.w3.org/2000/svg">
<path d="M30.8281 3.7266C30.6121 3.24224 30.2127 2.86335 29.7177 2.67305C29.2227 2.48274 28.6723 2.49656 28.1875 2.71147L11.7877 10H6.99999C5.43116 10 3.92472 10.6145 2.80346 11.7117C1.6822 12.809 1.03531 14.3018 1.0014 15.8702C0.967497 17.4387 1.54927 18.9581 2.62207 20.1028C3.69487 21.2474 5.17334 21.9264 6.74071 21.9942L11 21.9982V29H13V22.5384L28.1885 29.2891C28.493 29.4242 28.8264 29.4811 29.1585 29.4547C29.4906 29.4282 29.8108 29.3192 30.0901 29.1376C30.3694 28.956 30.5989 28.7076 30.7578 28.4148C30.9167 28.122 30.9999 27.7941 31 27.461V4.53861C30.9995 4.25896 30.941 3.98245 30.8281 3.7266ZM6.8164 19.9961C5.77255 19.9481 4.78894 19.4935 4.07596 18.7296C3.36297 17.9656 2.97721 16.9531 3.0012 15.9084C3.02519 14.8637 3.45701 13.8699 4.2043 13.1395C4.9516 12.4091 5.95503 12.0001 6.99999 12H11V20H7.02245L6.8164 19.9961ZM29 27.461L13 20.3506V11.6499L29 4.53861V27.461Z" fill="#222222"/>
</svg>
