<svg width="50" height="50" viewBox="0 0 50 50" fill="none" xmlns="http://www.w3.org/2000/svg">
<rect opacity="0.07" width="50" height="50" rx="10" fill="#4465DD"/>
<path fill-rule="evenodd" clip-rule="evenodd" d="M34.9964 21.3752H30.7618C28.7911 21.3787 27.1947 22.9353 27.1911 24.8567C27.1884 26.7824 28.7867 28.3459 30.7618 28.3485H35V28.6545C35 32.0137 32.9636 34.0001 29.5173 34.0001H20.4836C17.0364 34.0001 15 32.0137 15 28.6545V21.338C15 17.9787 17.0364 16.0001 20.4836 16.0001H29.5138C32.96 16.0001 34.9964 17.9787 34.9964 21.338V21.3752ZM19.7396 21.3674H25.3796H25.3831H25.3902C25.8124 21.3657 26.1538 21.0303 26.152 20.6178C26.1502 20.2061 25.8053 19.8733 25.3831 19.875H19.7396C19.32 19.8768 18.9796 20.2087 18.9778 20.6186C18.976 21.0303 19.3173 21.3657 19.7396 21.3674Z" fill="#4465DD"/>
<path opacity="0.4" d="M29.0374 25.2968C29.2465 26.248 30.0805 26.9172 31.0326 26.8998H34.2825C34.6787 26.8998 35 26.5717 35 26.1662V23.6346C34.9991 23.23 34.6787 22.901 34.2825 22.9001H30.9561C29.8731 22.9036 28.9983 23.8026 29 24.9104C29 25.0401 29.0128 25.1698 29.0374 25.2968Z" fill="#4465DD"/>
<circle cx="31" cy="24.9001" r="1" fill="#4465DD"/>
</svg>
