<svg width="53" height="52" viewBox="0 0 53 52" fill="none" xmlns="http://www.w3.org/2000/svg">
<path d="M22.2595 38.7408V34.345C22.2595 33.2229 23.1758 32.3133 24.3061 32.3133H28.4379C28.9807 32.3133 29.5013 32.5273 29.8851 32.9084C30.2689 33.2894 30.4846 33.8062 30.4846 34.345V38.7408C30.4811 39.2073 30.6654 39.6558 30.9965 39.9869C31.3276 40.318 31.7781 40.5042 32.248 40.5042H35.0669C36.3835 40.5076 37.6473 39.9907 38.5794 39.0678C39.5116 38.1448 40.0355 36.8915 40.0355 35.5845V23.0618C40.0355 22.006 39.564 21.0046 38.7483 20.3273L29.1588 12.7242C27.4906 11.3911 25.1006 11.4341 23.4823 12.8264L14.1116 20.3273C13.2573 20.9846 12.7467 21.9891 12.7214 23.0618V35.5717C12.7214 38.2958 14.9459 40.5042 17.69 40.5042H20.4445C21.4206 40.5042 22.2138 39.7224 22.2208 38.7535L22.2595 38.7408Z" fill="#EFF2F4"/>
</svg>
