<svg width="53" height="53" viewBox="0 0 53 53" fill="none" xmlns="http://www.w3.org/2000/svg">
<path d="M25.6491 12.2458C29.218 12.2458 32.1287 15.1066 32.1287 18.6287V25.5147H23.3528C22.7238 25.5147 22.2265 26.0035 22.2265 26.6217C22.2265 27.2254 22.7238 27.7286 23.3528 27.7286H32.1287V34.6002C32.1287 38.1223 29.218 40.9975 25.6199 40.9975H18.4967C14.9132 40.9975 12.0026 38.1367 12.0026 34.6146V18.6431C12.0026 15.1066 14.9279 12.2458 18.5114 12.2458H25.6491ZM35.7804 21.6623C36.2117 21.2166 36.9161 21.2166 37.3474 21.6479L41.5451 25.8313C41.7608 26.0469 41.8758 26.3201 41.8758 26.6219C41.8758 26.9095 41.7608 27.197 41.5451 27.3982L37.3474 31.5816C37.1318 31.7972 36.8442 31.9122 36.5711 31.9122C36.2836 31.9122 35.9961 31.7972 35.7804 31.5816C35.3492 31.1503 35.3492 30.4459 35.7804 30.0146L38.0806 27.7289H32.129V25.515H38.0806L35.7804 23.2293C35.3492 22.798 35.3492 22.0936 35.7804 21.6623Z" fill="white"/>
</svg>
