<svg width="50" height="50" viewBox="0 0 50 50" fill="none" xmlns="http://www.w3.org/2000/svg">
<rect opacity="0.07" width="50" height="50" rx="10" fill="#F76B1D"/>
<path opacity="0.4" d="M30 20.75C29.81 20.75 29.62 20.68 29.47 20.53C29.18 20.24 29.18 19.76 29.47 19.47L31.52 17.42C29.76 15.92 27.49 15 25 15C19.48 15 15 19.48 15 25C15 30.52 19.48 35 25 35C30.52 35 35 30.52 35 25C35 22.51 34.08 20.24 32.58 18.48L30.53 20.53C30.38 20.68 30.19 20.75 30 20.75Z" fill="#F76B1D"/>
<path d="M26.75 24.82L25.75 24.47V22.25H25.83C26.34 22.25 26.75 22.7 26.75 23.25C26.75 23.66 27.09 24 27.5 24C27.91 24 28.25 23.66 28.25 23.25C28.25 21.87 27.17 20.75 25.83 20.75H25.75V20.5C25.75 20.09 25.41 19.75 25 19.75C24.59 19.75 24.25 20.09 24.25 20.5V20.75H23.95C22.74 20.75 21.75 21.77 21.75 23.03C21.75 24.49 22.6 24.96 23.25 25.19L24.25 25.54V27.76H24.17C23.66 27.76 23.25 27.31 23.25 26.76C23.25 26.35 22.91 26.01 22.5 26.01C22.09 26.01 21.75 26.35 21.75 26.76C21.75 28.14 22.83 29.26 24.17 29.26H24.25V29.51C24.25 29.92 24.59 30.26 25 30.26C25.41 30.26 25.75 29.92 25.75 29.51V29.26H26.05C27.26 29.26 28.25 28.24 28.25 26.98C28.25 25.51 27.4 25.04 26.75 24.82ZM23.74 23.76C23.4 23.64 23.25 23.57 23.25 23.02C23.25 22.59 23.57 22.24 23.95 22.24H24.25V23.93L23.74 23.76ZM26.05 27.75H25.75V26.06L26.26 26.24C26.6 26.36 26.75 26.43 26.75 26.98C26.75 27.4 26.43 27.75 26.05 27.75Z" fill="#F76B1D"/>
<path d="M35.69 14.71C35.61 14.53 35.47 14.38 35.28 14.3C35.19 14.26 35.09 14.24 34.99 14.24H30.99C30.58 14.24 30.24 14.58 30.24 14.99C30.24 15.4 30.58 15.74 30.99 15.74H33.18L31.51 17.41C31.89 17.74 32.24 18.09 32.57 18.47L34.24 16.8V19C34.24 19.41 34.58 19.75 34.99 19.75C35.4 19.75 35.74 19.41 35.74 19V15C35.75 14.9 35.73 14.81 35.69 14.71Z" fill="#F76B1D"/>
</svg>
