<svg width="32" height="32" viewBox="0 0 32 32" fill="none" xmlns="http://www.w3.org/2000/svg">
<path d="M16 0.797974L16.555 1.16797C20.398 3.72997 24.208 4.99997 28 4.99997H29V17.5C29 25.574 23.21 31 16 31C8.79 31 3 25.574 3 17.5V4.99997H4C7.792 4.99997 11.602 3.72997 15.445 1.16797L16 0.797974ZM15 3.80297C11.8 5.66897 8.582 6.72297 5.352 6.95197L5 6.97197V17.5C5 24.058 9.347 28.491 15 28.959V3.80297ZM17 3.80297V28.96C22.654 28.492 27 24.059 27 17.501V6.97197L26.648 6.95197C23.418 6.72197 20.2 5.66997 17.001 3.80397L17 3.80297Z" fill="#222222"/>
</svg>
