<svg width="53" height="53" viewBox="0 0 53 53" fill="none" xmlns="http://www.w3.org/2000/svg">
<path d="M27.4094 11.7642C28.4966 11.7642 29.4809 12.3679 30.0245 13.2592C30.2889 13.6905 30.4652 14.2224 30.4211 14.7831C30.3918 15.2144 30.524 15.6456 30.759 16.0481C31.5083 17.2701 33.1684 17.7301 34.4613 17.0401C35.9158 16.2063 37.7522 16.7094 38.5896 18.1326L39.5739 19.829C40.426 21.2522 39.9559 23.0779 38.4868 23.8973C37.238 24.6305 36.7972 26.255 37.5465 27.4913C37.7816 27.8794 38.046 28.2101 38.4574 28.4113C38.9716 28.6845 39.3682 29.1158 39.6474 29.547C40.191 30.4383 40.1469 31.5309 39.618 32.4941L38.5896 34.2192C38.046 35.1392 37.0323 35.7142 35.9892 35.7142C35.475 35.7142 34.902 35.5705 34.4319 35.283C34.0499 35.0386 33.6092 34.9523 33.1391 34.9523C31.6846 34.9523 30.4652 36.1455 30.4211 37.5687C30.4211 39.2219 29.0695 40.5158 27.38 40.5158H25.382C23.6778 40.5158 22.3262 39.2219 22.3262 37.5687C22.2968 36.1455 21.0774 34.9523 19.6229 34.9523C19.1381 34.9523 18.6974 35.0386 18.3301 35.283C17.8599 35.5705 17.2723 35.7142 16.7728 35.7142C15.715 35.7142 14.7013 35.1392 14.1577 34.2192L13.144 32.4941C12.6004 31.5596 12.571 30.4383 13.1146 29.547C13.3497 29.1158 13.7904 28.6845 14.2899 28.4113C14.7013 28.2101 14.9657 27.8794 15.2155 27.4913C15.9501 26.255 15.5093 24.6305 14.2605 23.8973C12.8061 23.0779 12.336 21.2522 13.1734 19.829L14.1577 18.1326C15.0098 16.7094 16.8315 16.2063 18.3007 17.0401C19.5788 17.7301 21.239 17.2701 21.9882 16.0481C22.2233 15.6456 22.3555 15.2144 22.3262 14.7831C22.2968 14.2224 22.4584 13.6905 22.7375 13.2592C23.2811 12.3679 24.2654 11.7929 25.3379 11.7642H27.4094ZM26.3957 22.086C24.0891 22.086 22.2233 23.8973 22.2233 26.1543C22.2233 28.4113 24.0891 30.2083 26.3957 30.2083C28.7022 30.2083 30.524 28.4113 30.524 26.1543C30.524 23.8973 28.7022 22.086 26.3957 22.086Z" fill="#EFF2F4"/>
</svg>
