<svg width="50" height="50" viewBox="0 0 50 50" fill="none" xmlns="http://www.w3.org/2000/svg">
<rect opacity="0.07" width="50" height="50" rx="10" fill="#FFCC19"/>
<path opacity="0.4" d="M34.25 26.4765C33.429 26.4765 32.761 25.8146 32.761 25.0011C32.761 24.1866 33.429 23.5247 34.25 23.5247C34.449 23.5247 34.64 23.4465 34.78 23.3077C34.921 23.168 35 22.9788 35 22.7816L34.999 20.1043C34.999 17.8411 33.14 16.0001 30.856 16.0001H19.144C16.86 16.0001 15.001 17.8411 15.001 20.1043L15 22.8678C15 23.065 15.079 23.2542 15.22 23.3939C15.36 23.5327 15.551 23.6109 15.75 23.6109C16.599 23.6109 17.239 24.2084 17.239 25.0011C17.239 25.8146 16.571 26.4765 15.75 26.4765C15.336 26.4765 15 26.8094 15 27.2197V29.895C15 32.1581 16.858 34.0001 19.143 34.0001H30.857C33.142 34.0001 35 32.1581 35 29.895V27.2197C35 26.8094 34.664 26.4765 34.25 26.4765Z" fill="#FFCC19"/>
<path d="M28.4305 24.5887L27.2515 25.7367L27.5305 27.3597C27.5785 27.6407 27.4655 27.9177 27.2345 28.0837C27.0055 28.2517 26.7065 28.2727 26.4545 28.1387L24.9995 27.3737L23.5415 28.1397C23.4335 28.1967 23.3155 28.2267 23.1985 28.2267C23.0455 28.2267 22.8945 28.1787 22.7645 28.0847C22.5345 27.9177 22.4215 27.6407 22.4695 27.3597L22.7475 25.7367L21.5685 24.5887C21.3645 24.3907 21.2935 24.0997 21.3815 23.8287C21.4705 23.5587 21.7005 23.3667 21.9815 23.3267L23.6075 23.0897L24.3365 21.6127C24.4635 21.3587 24.7175 21.2007 24.9995 21.2007H25.0015C25.2845 21.2017 25.5385 21.3597 25.6635 21.6137L26.3925 23.0897L28.0215 23.3277C28.2995 23.3667 28.5295 23.5587 28.6175 23.8287C28.7065 24.0997 28.6355 24.3907 28.4305 24.5887Z" fill="#FFCC19"/>
</svg>
