<svg width="53" height="52" viewBox="0 0 53 52" fill="none" xmlns="http://www.w3.org/2000/svg">
<path d="M33.0851 11.5204C35.1531 11.3911 37.1924 12.1091 38.729 13.5165C40.1364 15.0531 40.8544 17.0924 40.7395 19.1747V32.5879C40.8688 34.6702 40.1364 36.7095 38.7434 38.2461C37.2067 39.6534 35.1531 40.3715 33.0851 40.2422H19.6719C17.5895 40.3715 15.5502 39.6534 14.0136 38.2461C12.6062 36.7095 11.8882 34.6702 12.0174 32.5879V19.1747C11.8882 17.0924 12.6062 15.0531 14.0136 13.5165C15.5502 12.1091 17.5895 11.3911 19.6719 11.5204H33.0851ZM32.7117 18.0833C31.8213 17.1929 30.3852 17.1929 29.4948 18.0833L28.5326 19.0598C28.389 19.2035 28.389 19.4476 28.5326 19.5912C28.5326 19.5912 28.5608 19.6192 28.611 19.6691L28.9643 20.0204C29.1686 20.2237 29.4236 20.4776 29.6797 20.7329L30.5482 21.6009C30.7294 21.7829 30.8496 21.9049 30.8591 21.9177C31.0171 22.09 31.1176 22.3198 31.1176 22.5783C31.1176 23.0953 30.7012 23.5261 30.1698 23.5261C29.9257 23.5261 29.6959 23.4256 29.5379 23.2676L27.1396 20.8837C27.0247 20.7688 26.8237 20.7688 26.7088 20.8837L19.8586 27.7339C19.3846 28.2078 19.1118 28.8397 19.0974 29.5146L19.0113 32.9182C19.0113 33.1049 19.0687 33.2772 19.198 33.4064C19.3272 33.5357 19.4995 33.6075 19.6862 33.6075H23.0611C23.7504 33.6075 24.411 33.3346 24.9137 32.8464L34.5786 23.1527C35.4547 22.2623 35.4547 20.8262 34.5786 19.9502L32.7117 18.0833Z" fill="white"/>
</svg>
