<svg width="36" height="35" viewBox="0 0 36 35" fill="none" xmlns="http://www.w3.org/2000/svg">
<path d="M24.0632 3.2583C28.9355 3.2583 32.2088 6.67703 32.2088 11.7641V23.5041C32.2088 28.5912 28.9355 32.0099 24.0617 32.0099H11.6027C6.73037 32.0099 3.45715 28.5912 3.45715 23.5041V11.7641C3.45715 6.67703 6.73037 3.2583 11.6027 3.2583H24.0632ZM25.6485 18.4248C24.1075 17.4635 22.9178 18.8135 22.5968 19.2453C22.2875 19.6621 22.0215 20.1221 21.741 20.582C21.0558 21.7169 20.2709 23.0254 18.912 23.7865C16.9373 24.8799 15.4382 23.8725 14.3598 23.1396C13.9551 22.8667 13.5619 22.6085 13.1701 22.4364C12.2044 22.0195 11.3356 22.4943 10.0462 24.1321C9.36962 24.9882 8.69887 25.8368 8.01944 26.6824C7.61322 27.1883 7.71008 27.9687 8.25796 28.3069C9.13255 28.8455 10.1994 29.1347 11.405 29.1347H23.5206C24.2043 29.1347 24.8896 29.0413 25.543 28.8276C27.0146 28.347 28.1826 27.2462 28.7927 25.7923C29.3073 24.5698 29.5574 23.0862 29.076 21.8519C28.9155 21.4424 28.6756 21.0612 28.3388 20.7259C27.4555 19.8491 26.6301 19.0301 25.6485 18.4248ZM12.7998 9.00862C10.8179 9.00862 9.20748 10.6212 9.20748 12.6026C9.20748 14.5839 10.8179 16.1965 12.7998 16.1965C14.7803 16.1965 16.3921 14.5839 16.3921 12.6026C16.3921 10.6212 14.7803 9.00862 12.7998 9.00862Z" fill="#EFF2F4"/>
</svg>
