<svg width="53" height="53" viewBox="0 0 53 53" fill="none" xmlns="http://www.w3.org/2000/svg">
<path d="M26.3052 30.038C31.2378 30.038 35.4495 30.82 35.4495 33.9493C35.4495 37.0773 31.2648 37.8878 26.3052 37.8878C21.3726 37.8878 17.1608 37.1058 17.1608 33.9778C17.1608 30.8485 21.3455 30.038 26.3052 30.038ZM34.1918 28.1537C36.0776 28.1188 38.1049 28.3777 38.8541 28.5616C40.4412 28.8736 41.4851 29.5106 41.9177 30.4363C42.2832 31.1963 42.2832 32.0779 41.9177 32.8366C41.256 34.2725 39.1231 34.7334 38.2941 34.8525C38.1229 34.8784 37.9852 34.7295 38.0032 34.5573C38.4267 30.5787 35.0581 28.6923 34.1867 28.2586C34.1493 28.2392 34.1416 28.2094 34.1455 28.1913C34.148 28.1783 34.1635 28.1576 34.1918 28.1537ZM18.211 28.151L18.5661 28.1542C18.5944 28.1581 18.6085 28.1788 18.6111 28.1905C18.615 28.2099 18.6073 28.2384 18.5712 28.2591C17.6985 28.6928 14.3298 30.5792 14.7533 34.5565C14.7714 34.73 14.6349 34.8776 14.4637 34.853C13.6347 34.7339 11.5018 34.273 10.8402 32.8372C10.4733 32.0772 10.4733 31.1968 10.8402 30.4368C11.2727 29.5111 12.3154 28.8741 13.9025 28.5608C14.6529 28.3782 16.679 28.1193 18.5661 28.1542L18.211 28.151ZM26.3052 14.8865C29.6635 14.8865 32.3564 17.5924 32.3564 20.9715C32.3564 24.3494 29.6635 27.0579 26.3052 27.0579C22.9468 27.0579 20.254 24.3494 20.254 20.9715C20.254 17.5924 22.9468 14.8865 26.3052 14.8865ZM34.52 15.9013C37.7638 15.9013 40.3112 18.971 39.4436 22.3903C38.858 24.6922 36.7379 26.2213 34.3759 26.1591C34.139 26.1526 33.906 26.1306 33.6808 26.0918C33.5173 26.0633 33.4349 25.8782 33.5276 25.7409C34.4286 24.4074 34.9422 22.8033 34.9422 21.0813C34.9422 19.2843 34.381 17.609 33.4066 16.2353C33.3757 16.1926 33.3525 16.1265 33.3834 16.0773C33.4092 16.0372 33.4568 16.0165 33.5019 16.0061C33.8301 15.9388 34.1673 15.9013 34.52 15.9013ZM18.2359 15.9011C18.5886 15.9011 18.9258 15.9387 19.2554 16.006C19.2991 16.0164 19.348 16.0384 19.3738 16.0772C19.4034 16.1264 19.3815 16.1924 19.3506 16.2352C18.3762 17.6088 17.815 19.2842 17.815 21.0812C17.815 22.8031 18.3286 24.4073 19.2296 25.7408C19.3223 25.878 19.2399 26.0632 19.0764 26.0917C18.8499 26.1318 18.6182 26.1525 18.3813 26.159C16.0193 26.2211 13.8993 24.6921 13.3136 22.3901C12.4447 18.9708 14.9921 15.9011 18.2359 15.9011Z" fill="#EFF2F4"/>
</svg>
