<svg width="168" height="53" viewBox="0 0 168 53" fill="none" xmlns="http://www.w3.org/2000/svg">
<path d="M20.4391 14.2816V19.0084H14.0217V38.502H8.12187V19.0084H1.70451V14.2816H20.4391ZM41.548 28.5654C41.548 29.1174 41.5135 29.6925 41.4445 30.2905H28.0923C28.1843 31.4866 28.5638 32.4066 29.2309 33.0506C29.9209 33.6717 30.7604 33.9822 31.7495 33.9822C33.2216 33.9822 34.2451 33.3612 34.8202 32.1191H41.0995C40.7775 33.3842 40.191 34.5227 39.3399 35.5348C38.5119 36.5468 37.4653 37.3404 36.2002 37.9154C34.9352 38.4905 33.5206 38.778 31.9565 38.778C30.0704 38.778 28.3913 38.3754 26.9192 37.5704C25.4471 36.7654 24.2971 35.6153 23.469 34.1202C22.641 32.6251 22.227 30.877 22.227 28.8759C22.227 26.8748 22.6295 25.1267 23.4345 23.6316C24.2626 22.1365 25.4126 20.9865 26.8847 20.1814C28.3568 19.3764 30.0474 18.9739 31.9565 18.9739C33.8196 18.9739 35.4757 19.3649 36.9248 20.1469C38.3739 20.929 39.5009 22.0445 40.306 23.4936C41.134 24.9427 41.548 26.6333 41.548 28.5654ZM35.5102 27.0128C35.5102 26.0008 35.1652 25.1957 34.4751 24.5977C33.7851 23.9996 32.9226 23.7006 31.8875 23.7006C30.8984 23.7006 30.0589 23.9881 29.3689 24.5632C28.7018 25.1382 28.2878 25.9548 28.1268 27.0128H35.5102ZM56.3912 19.0429C58.6453 19.0429 60.4394 19.7789 61.7735 21.251C63.1305 22.7001 63.8091 24.7012 63.8091 27.2543V38.502H57.9437V28.0479C57.9437 26.7598 57.6102 25.7592 56.9432 25.0462C56.2761 24.3332 55.3791 23.9766 54.252 23.9766C53.125 23.9766 52.2279 24.3332 51.5609 25.0462C50.8938 25.7592 50.5603 26.7598 50.5603 28.0479V38.502H44.6605V19.2499H50.5603V21.803C51.1584 20.952 51.9634 20.2849 52.9755 19.8019C53.9875 19.2959 55.1261 19.0429 56.3912 19.0429ZM73.4292 33.6372H81.7786V38.502H66.8393V33.8097L74.8438 24.1146H66.9083V19.2499H81.6061V23.9421L73.4292 33.6372ZM87.9922 17.2488C86.9572 17.2488 86.1061 16.9497 85.4391 16.3517C84.795 15.7307 84.473 14.9716 84.473 14.0746C84.473 13.1545 84.795 12.3955 85.4391 11.7975C86.1061 11.1764 86.9572 10.8659 87.9922 10.8659C89.0043 10.8659 89.8323 11.1764 90.4764 11.7975C91.1434 12.3955 91.4769 13.1545 91.4769 14.0746C91.4769 14.9716 91.1434 15.7307 90.4764 16.3517C89.8323 16.9497 89.0043 17.2488 87.9922 17.2488ZM90.9249 19.2499V38.502H85.0251V19.2499H90.9249ZM120.97 22.079C120.97 23.4821 120.648 24.7702 120.004 25.9432C119.36 27.0933 118.371 28.0249 117.037 28.7379C115.703 29.4509 114.047 29.8075 112.069 29.8075H108.412V38.502H102.512V14.2816H112.069C114.001 14.2816 115.634 14.6151 116.968 15.2822C118.302 15.9492 119.303 16.8692 119.97 18.0423C120.637 19.2154 120.97 20.5609 120.97 22.079ZM111.62 25.1152C112.747 25.1152 113.587 24.8507 114.139 24.3217C114.691 23.7926 114.967 23.0451 114.967 22.079C114.967 21.113 114.691 20.3654 114.139 19.8364C113.587 19.3074 112.747 19.0429 111.62 19.0429H108.412V25.1152H111.62ZM122.869 28.8414C122.869 26.8633 123.237 25.1267 123.973 23.6316C124.732 22.1365 125.755 20.9865 127.044 20.1814C128.332 19.3764 129.769 18.9739 131.356 18.9739C132.713 18.9739 133.898 19.2499 134.91 19.8019C135.945 20.3539 136.739 21.0785 137.291 21.9755V19.2499H143.19V38.502H137.291V35.7763C136.716 36.6734 135.911 37.3979 134.875 37.9499C133.863 38.502 132.679 38.778 131.322 38.778C129.758 38.778 128.332 38.3754 127.044 37.5704C125.755 36.7424 124.732 35.5808 123.973 34.0857C123.237 32.5676 122.869 30.8195 122.869 28.8414ZM137.291 28.8759C137.291 27.4038 136.877 26.2423 136.049 25.3912C135.244 24.5402 134.254 24.1146 133.081 24.1146C131.908 24.1146 130.908 24.5402 130.08 25.3912C129.275 26.2193 128.872 27.3693 128.872 28.8414C128.872 30.3135 129.275 31.4866 130.08 32.3606C130.908 33.2117 131.908 33.6372 133.081 33.6372C134.254 33.6372 135.244 33.2117 136.049 32.3606C136.877 31.5096 137.291 30.348 137.291 28.8759ZM167.125 19.2499L155.049 47.645H148.701L153.117 37.8464L145.285 19.2499H151.875L156.326 31.291L160.742 19.2499H167.125Z" fill="#EFF2F4"/>
</svg>
